<svg xmlns="http://www.w3.org/2000/svg" xmlns:xlink="http://www.w3.org/1999/xlink" xmlns:fi="http://pattern.flaticon.com/" x="0" y="0" width="2500" height="1250" viewBox="0 0 2500 1250"><rect x="0px" y="0px" width="100%" height="100%" opacity="1" fill="#8ab1f8"/><defs><g transform="matrix(1.034482717514038 0 0 1.034482717514038 309 155)" id="L1_16" fill="none"><path d="m47.9 38.22c-.38 2.22-1.74 4.66-6.09 3.97-.667261-.108359-1.3256891-.2654459-1.97-.47-.01-.01-.01-.01-.02-.01-.3496054 2.6886899-1.2665188 5.2724085-2.69 7.58l-9.4 7.21c-2.4419846.6666618-5.0180154.6666618-7.46 0l-9.4-7.21c-1.40203724-2.2761523-2.3115799-4.8208279-2.67-7.47-.01148151-.035626-.01820635-.0726126-.02-.11-.6421321.2026949-1.29687175.3630393-1.96.48-4.37.7-5.74-1.74-6.12-3.97-.26642948-1.8501047.08134735-3.7365305.99-5.37 2.19679459-4.1825821 5.60094593-7.6076392 9.77-9.83.71-.38 1.3-.65 1.69-.81h22.9c.39.16.98.43 1.69.81 4.1690541 2.2223608 7.5732054 5.6474179 9.77 9.83.9086526 1.6334695 1.2564295 3.5198953.99 5.37z" id="L1_0" fill="#f29c1f"/><path d="m35 40c0 8.28-4.92 15-11 15s-11-6.72-11-15c-.101309-4.2074434 1.314994-8.3108176 3.99-11.56 1.7267417-2.1096111 4.2848463-3.3649435 7.01-3.44 2.7251537.0750565 5.2832583 1.3303889 7.01 3.44 2.675006 3.2491824 4.091309 7.3525566 3.99 11.56z" id="L1_1" fill="#ecf0f1"/><path d="m43 4c-.1699575.81566467-.4456177 1.60566654-.82 2.35-.7741805 1.62943247-2.0498019 2.96813408-3.64 3.82.3059058 1.0835297.4607015 2.2041162.46 3.33 0 7.46-6.72 13.5-15 13.5s-15-6.04-15-13.5c-.00070151-1.1258838.15409422-2.2464703.46-3.33-2.3059331-1.31830577-3.93137851-3.56696007-4.46-6.17 3.38-4.23 9.62-2.74 11.47-2.17 4.723504-2.44000823 10.336496-2.44000823 15.06 0 1.85-.57 8.09-2.06 11.47 2.17z" id="L1_2" fill="#f29c1f"/><path d="m37.14 23.02c-1.4783587 2.3596212-3.607074 4.2417806-6.13 5.42-1.7267417-2.1096111-4.2848463-3.3649435-7.01-3.44-2.7251537.0750565-5.2832583 1.3303889-7.01 3.44-2.522926-1.1782194-4.6516413-3.0603788-6.13-5.42.71-.38 1.3-.65 1.69-.81h22.9c.39.16.98.43 1.69.81z" id="L1_3" fill="#e57e25"/><path d="m31.01 28.44c-4.4418915 2.0800045-9.5781085 2.0800045-14.02 0 1.7267417-2.1096111 4.2848463-3.3649435 7.01-3.44 2.7251537.0750565 5.2832583 1.3303889 7.01 3.44z" id="L1_5" fill="#d1d4d1"/><circle cx="17" cy="10" r="2" id="L1_4" fill="#3f5c6c"/><circle cx="31" cy="10" r="2" id="L1_15" fill="#3f5c6c"/><g fill="#e57e25"><path d="m41.92 40c0 .74-.04 1.48-.11 2.19-.667261-.108359-1.3256891-.2654459-1.97-.47.05-.56.08-1.14.08-1.72.0099911-2.6136971-.5318183-5.2000703-1.59-7.59-.2204938-.5054127.006966-1.0941322.51-1.32.2411657-.1101539.5163677-.11929.764308-.0253732.2479404.0939168.4480266.2830863.555692.5253732 1.1726837 2.6480089 1.772457 5.5139712 1.76 8.41z" id="L1_6"/><path d="m9.69 32.41c-1.05494607 2.3906139-1.59335059 4.9770002-1.58 7.59-.00069041.6077957.02934793 1.2152377.09 1.82-.01148151-.035626-.01820635-.0726126-.02-.11-.6421321.2026949-1.29687175.3630393-1.96.48-.07-.71-.11-1.45-.11-2.19-.0109432-2.8948403.58521611-5.7598116 1.75-8.41.22721259-.5017535.81738674-.7253043 1.32-.5.24481923.1049185.43697.3041506.53296372.5526049.09599372.2484544.08771455.5251253-.02296372.7673951z" id="L1_7"/><path d="m22 53.625c0 2.416-3.134 4.375-7 4.375s-7-1.959-7-4.375 3.134-5.625 7-5.625 7 3.209 7 5.625z" id="L1_8"/><path d="m40 53.625c0 2.416-3.134 4.375-7 4.375s-7-1.959-7-4.375 3.134-5.625 7-5.625 7 3.209 7 5.625z" id="L1_9"/></g><path d="m33 37.23c0 2.8-1.9 7.64-9 9.77-7.1-2.13-9-6.97-9-9.77 0-.12 0-.24.01-.36.15-2.65 1.95-4.87 4.49-4.87 1.6929901-.0100645 3.3173318.6685493 4.5 1.88 1.1826682-1.2114507 2.8070099-1.8900645 4.5-1.88 2.54 0 4.34 2.22 4.49 4.87.01.12.01.24.01.36z" id="L1_10" fill="#df4d60"/><path d="m32.99 36.87c-1.29 2.32-3.97 4.78-8.99 6.13-5.02-1.35-7.7-3.81-8.99-6.13.15-2.65 1.95-4.87 4.49-4.87 1.6929901-.0100645 3.3173318.6685493 4.5 1.88 1.1826682-1.2114507 2.8070099-1.8900645 4.5-1.88 2.54 0 4.34 2.22 4.49 4.87z" id="L1_11" fill="#ff5364"/><path d="m11.46 6.1c-.9022395 1.22763806-1.57940963 2.60567934-2 4.07-2.3059331-1.31830577-3.93137851-3.56696007-4.46-6.17 0 0 3.9 0 6.46 2.1z" id="L1_12" fill="#e57e25"/><path d="m43 4c-.5286215 2.60303993-2.1540669 4.85169423-4.46 6.17-.4205904-1.46432066-1.0977605-2.84236194-2-4.07 2.56-2.1 6.46-2.1 6.46-2.1z" id="L1_13" fill="#e57e25"/><path d="m36.62 20.8c-2.9692256 3.9706088-7.6625608 6.2763678-12.62 6.2-4.9574392.0763678-9.6507744-2.2293912-12.62-6.2 2.11-5.43 7.95-5.17 9.94-4.91h5.36c1.99-.26 7.83-.52 9.94 4.91z" id="L1_14" fill="#ecf0f1"/><path d="m25 24h-2c-.5522847 0-1-.4477153-1-1s.4477153-1 1-1h2c.5522847 0 1 .4477153 1 1s-.4477153 1-1 1z" id="L1_17" fill="#3f5c6c"/><ellipse cx="24px" cy="15px" rx="3px" ry="2px" id="L1_19" fill="#35495e"/></g><g transform="matrix(1.2553188887420794 0.17574464040092905 -0.17574464040092905 1.2553188887420794 117.03974209247176 104.59527138095807)" id="L1_38" fill="none"><path d="m31.109 53.85 16.74 4.982c3.251.968 6.151-2.412 4.951-5.766l-4.337-12.1c-.5969624-1.651617-.1937674-3.4992373 1.037-4.752l8.189-8.124c1.0811838-1.0797296 1.538274-2.6356216 1.2128925-4.1285721-.3253815-1.4929506-1.3884618-2.7175286-2.8208925-3.2494279l-15.138-4.9c-1.0994419-.3671987-1.9976456-1.173446-2.481-2.227l-4.783-10.168c-.6343623-1.46754272-2.0802201-2.41770977-3.679-2.41770977s-3.0446377.95016705-3.679 2.41770977l-4.785 10.171c-.4833544 1.053554-1.3815581 1.8598013-2.481 2.227l-15.138 4.9c-1.43125035.5323089-2.49332091 1.7562624-2.81862343 3.2482438-.32530253 1.4919814.13086607 3.0469626 1.21062343 4.1267562l8.191 8.124c1.2307674 1.2527627 1.6339624 3.100383 1.037 4.752l-4.337 12.1c-1.2 3.354 1.7 6.734 4.951 5.766l16.74-4.982c.7235576-.2159959 1.4944424-.2159959 2.218 0z" id="L1_18" fill="#f0c419"/><path d="m49.5 36.21c-1.2274892 1.2577261-1.6310819 3.104939-1.04 4.76l4.34 12.1c1.2 3.35-1.7 6.73-4.95 5.76l-16.74-4.98c-.3598178-.1101094-.7337208-.1673739-1.11-.17v-52.68c1.5973471.00778739 3.0399649.95646537 3.68 2.42l4.78 10.17c.4890378 1.0533694 1.3892898 1.8596192 2.49 2.23l15.13 4.89c1.433534.531177 2.4977676 1.755974 2.823618 3.249624.3258505 1.4936499-.1315673 3.0504061-1.213618 4.130376z" id="L1_21" fill="#f3d55b"/><circle cx="20" cy="25" r="4" id="L1_20" fill="#35495e"/><circle cx="20" cy="24" r="3" id="L1_23" fill="#3f5c6c"/><path d="m30 40c-3.0106272-.0301929-5.7208811-1.8311498-6.915-4.595-.2236753-.5053405.0046595-1.0963247.51-1.32s1.0963247.0046595 1.32.51c.8490409 2.0599187 2.856966 3.4041052 5.085 3.4041052s4.2359591-1.3441865 5.085-3.4041052c.1446926-.326898.452792-.5517717.8082403-.5899132.3554483-.0381416.7042443.1162435.915.405.2107557.2887564.2514523.6680152.1067597.9949132-1.1941189 2.7638502-3.9043728 4.5648071-6.915 4.595z" id="L1_22" fill="#e57e25"/><path d="m21 33h-2c-.5522847 0-1-.4477153-1-1s.4477153-1 1-1h2c.5522847 0 1 .4477153 1 1s-.4477153 1-1 1z" id="L1_25" fill="#fb7b76"/><circle cx="40" cy="25" r="4" id="L1_24" fill="#35495e"/><circle cx="40" cy="24" r="3" id="L1_36" fill="#3f5c6c"/><path d="m41 33h-2c-.5522847 0-1-.4477153-1-1s.4477153-1 1-1h2c.5522847 0 1 .4477153 1 1s-.4477153 1-1 1z" id="L1_26" fill="#fb7b76"/><g fill="#f29c1f"><path d="m40 52c-.4043959-.0000863-.7689341-.2437275-.923678-.6173454-.1547439-.373618-.0692299-.8036603.216678-1.0896546l5-5c.3923789-.3789722 1.0160848-.3735524 1.4018186.0121814s.3911536 1.0094397.0121814 1.4018186l-5 5c-.1874927.1875494-.4418052.2929434-.707.293z" id="L1_27"/><path d="m45 54c-.4043959-.0000863-.7689341-.2437275-.923678-.6173454-.1547439-.373618-.0692299-.8036603.216678-1.0896546l2-2c.3923789-.3789722 1.0160848-.3735524 1.4018186.0121814s.3911536 1.0094397.0121814 1.4018186l-2 2c-.1874927.1875494-.4418052.2929434-.707.293z" id="L1_28"/><path d="m20 52c-.2651948-.0000566-.5195073-.1054506-.707-.293l-5-5c-.3789722-.3923789-.3735524-1.0160848.0121814-1.4018186s1.0094397-.3911536 1.4018186-.0121814l5 5c.2859079.2859943.3714219.7160366.216678 1.0896546-.1547439.3736179-.5192821.6172591-.923678.6173454z" id="L1_29"/><path d="m15 54c-.2651948-.0000566-.5195073-.1054506-.707-.293l-2-2c-.3789722-.3923789-.3735524-1.0160848.0121814-1.4018186s1.0094397-.3911536 1.4018186-.0121814l2 2c.2859079.2859943.3714219.7160366.216678 1.0896546-.1547439.3736179-.5192821.6172591-.923678.6173454z" id="L1_30"/><path d="m31 8h-2c-.5522847 0-1-.44771525-1-1s.4477153-1 1-1h2c.5522847 0 1 .44771525 1 1s-.4477153 1-1 1z" id="L1_31"/><path d="m33 12h-6c-.5522847 0-1-.4477153-1-1s.4477153-1 1-1h6c.5522847 0 1 .4477153 1 1s-.4477153 1-1 1z" id="L1_32"/><path d="m7 27c-.32144358.0000774-.62332833-.1543712-.8113424-.4150947-.18801406-.2607234-.23923378-.5959327-.1376576-.9009053l1-3c.11289592-.3394023.39828503-.5927937.74866403-.6647242.35037899-.0719304.71251695.0485281.95000001.316.23748307.2674719.3142319.6413219.20133596.9807242l-1 3c-.13630375.4092423-.51965668.6849662-.951.684z" id="L1_33"/><path d="m10 31c-.09305621.0001628-.18565843-.0129699-.275-.039-.53058692-.152078-.83762485-.7052834-.686-1.236l2-7c.1639459-.5154609.7080459-.8071275 1.2280777-.658315.5200317.1488124.8274741.6841565.6939223 1.208315l-2 7c-.1227072.4290043-.5147918.7248018-.961.725z" id="L1_34"/><path d="m53 27c-.4306074.0001037-.8129281-.2754572-.949-.684l-1-3c-.174522-.5246705.1093295-1.091478.634-1.266s1.091478.1093295 1.266.634l1 3c.1016886.3053075.0502399.6408961-.1382416.9017179-.1884814.2608218-.4909623.4150035-.8127584.4142821z" id="L1_35"/><path d="m50 31c-.4462082-.0001982-.8382928-.2959957-.961-.725l-2-7c-.1103983-.3471024-.0233391-.7267789.2272589-.9911055.250598-.2643265.6250961-.371493.977588-.2797468s.6272216.3678931.7171531.7208523l2 7c.1516249.5307166-.1554131 1.083922-.686 1.236-.0893416.0260301-.1819438.0391628-.275.039z" id="L1_39"/></g><circle cx="19" cy="23" r="1" id="L1_37" fill="#ecf0f1"/><circle cx="39" cy="23" r="1" id="L1_51" fill="#ecf0f1"/></g><g transform="matrix(1.034482717514038 0 0 1.034482717514038 1 269)" id="L1_67" fill="none"><path d="m53.4 46.42c-.9226798.1054768-1.8516632.1455768-2.78.12 1.5905776 1.406452 2.6055391 3.3509046 2.85 5.46.84 6.84-11.8 4.9-15.49.45-.0622174.7595775-.2800682 1.4982277-.64 2.17-1.33 2.57-4.56 4.38-8.34 4.38-3.76 0-6.98-1.79-8.32-4.34-.3722217-.6823669-.5970693-1.4352656-.66-2.21-3.69 4.45-16.33 6.39-15.49-.45.24329738-2.1116797 1.26259632-4.0576141 2.86-5.46-.92833507.0253604-1.85730327-.0147389-2.78-.12-3.12-.41-5.62-1.82-4.2-5.67 1.96-5.29 8.02-5.14 12.22-4.32.76.15 1.46.32 2.06.48h28.62c.6-.16 1.3-.33 2.06-.48 4.2-.82 10.26-.97 12.22 4.32 1.42 3.84-1.08 5.26-4.19 5.67z" id="L1_40" fill="#ff5364"/><path d="m45.37 36.43c-2.9291139 6.406213-9.325905 10.515142-16.37 10.515142s-13.4408861-4.108929-16.37-10.515142c.76.15 1.46.32 2.06.48h28.62c.6-.16 1.3-.33 2.06-.48z" id="L1_41" fill="#df4d60"/><path d="m34.982 9.054c8.2717754 2.9146496 13.2388702 11.3666042 11.7603855 20.0113445-1.4784847 8.6447402-8.972126 14.9655715-17.7423855 14.9655715s-16.2639008-6.3208313-17.7423855-14.9655715c-1.47848475-8.6447403 3.4886101-17.0966949 11.7603855-20.0113445z" id="L1_42" fill="#fb7b76"/><path d="m4 43.139c-.11878155-.000597-.23654786-.0219167-.348-.063-.51769838-.1919929-.78181817-.7672369-.59-1.285.473-1.278 1.783-2.8 5.333-2.8.55228475 0 1 .4477153 1 1s-.44771525 1-1 1c-1.926 0-3.089.5-3.458 1.5-.14673732.3901885-.52013222.6484168-.937.648z" id="L1_43" fill="#fb7b76"/><path d="m22.72 50.47c-.0113254 1.6333121-.7613149 3.1737318-2.04 4.19-.3722217-.6823669-.5970693-1.4352656-.66-2.21.4509411-.526549.6991623-1.196746.7-1.89-.0215226-.5538327.4064601-1.0219388.96-1.05.265273-.0108235.5239618.0842861.7190475.2643652s.3105535.4303448.3209525.6956348z" id="L1_44" fill="#df4d60"/><path d="m15.02 43.05c.0501562.5507421-.3502317 1.0401052-.9 1.1-2.3895977.3013403-4.68557053 1.1167007-6.73 2.39-.92833507.0253604-1.85730327-.0147389-2.78-.12.05102713-.1806092.15146378-.3433858.29-.47 3.58-3.23 8.81-3.77 9.03-3.79.545912-.0524141 1.0321839.3446336 1.09.89z" id="L1_45" fill="#df4d60"/><path d="m53.4 46.42c-.9226798.1054768-1.8516632.1455768-2.78.12-2.0444295-1.2732993-4.3404023-2.0886597-6.73-2.39-.5497683-.0598948-.9501562-.5492579-.9-1.1.0578161-.5453664.544088-.9424141 1.09-.89.22.02 5.45.56 9.03 3.79.1385362.1266142.2389729.2893908.29.47z" id="L1_46" fill="#df4d60"/><path d="m8.358 53.329c-.05156316-.0000941-.10304466-.0041056-.154-.012-.54558793-.0846137-.9193698-.5953743-.835-1.141.818-5.276 8.3-6.155 8.617-6.191.548971-.0607513 1.0432487.335029 1.104.884s-.335029 1.0432487-.884 1.104c-.062.007-6.278.753-6.86 4.509-.07544794.4873179-.49487617.8468885-.988.847z" id="L1_47" fill="#fb7b76"/><path d="m54 43.139c-.4187597-.0000982-.7931091-.2611052-.938-.654-.368-.993-1.531-1.5-3.457-1.5-.5522847 0-1-.4477153-1-1s.4477153-1 1-1c3.55 0 4.86 1.524 5.332 2.8.1919184.5174805-.0716976 1.092602-.589 1.285-.1110846.0431319-.2288622.0664844-.348.069z" id="L1_48" fill="#fb7b76"/><path d="m49.642 53.329c-.4931238-.0001115-.9125521-.3596821-.988-.847-.582-3.756-6.8-4.5-6.86-4.509-.355122-.0392992-.6623024-.2650685-.8058293-.5922628-.1435268-.3271943-.1015951-.7061049.11-.994.2115952-.2878951.5607073-.4410364.9158293-.4017372.317.036 7.8.915 8.617 6.191.0843698.5456257-.2894121 1.0563863-.835 1.141-.0509553.0078944-.1024368.0119059-.154.012z" id="L1_49" fill="#fb7b76"/><path d="m37.98 52.45c-.0622174.7595775-.2800682 1.4982277-.64 2.17-.0817009-.0407606-.1560496-.0948324-.22-.16-1.1792124-.9916847-1.8660043-2.4492909-1.88-3.99-.0195057-.3786823.1768462-.7358216.5070403-.9222421.3301941-.1864206.737422-.1700496 1.0515861.0422748s.481214.5840728.4313736.9599673c.01202.7031889.2784703 1.3781965.75 1.9z" id="L1_50" fill="#df4d60"/><path d="m29 56.876c-3.136 0-5.823-1.7-5.99-3.8-.0522398-.3686401.1046484-.735779.4071662-.9528217.3025178-.2170428.7005676-.2480466 1.0330437-.0804633.3324761.1675834.5443198.506002.5497901.878285.053.664 1.511 1.955 4 1.955s3.943-1.291 4-1.955c.0439066-.5506279.5258721-.9614066 1.0765-.9175s.9614066.5258721.9175 1.0765c-.171 2.093-2.858 3.796-5.994 3.796z" id="L1_55" fill="#fb7b76"/><circle cx="24" cy="26" r="3" id="L1_52" fill="#35495e"/><circle cx="24" cy="25" r="2" id="L1_53" fill="#3f5c6c"/><circle cx="34" cy="26" r="3" id="L1_54" fill="#35495e"/><circle cx="34" cy="25" r="2" id="L1_65" fill="#3f5c6c"/><path d="m33 32c0 2.209139-1.790861 4-4 4s-4-1.790861-4-4z" id="L1_56" fill="#802d40"/><g fill="#ff5364"><path d="m19 31c-.5522847 0-1-.4477153-1-1v-1c0-.5522847.4477153-1 1-1s1 .4477153 1 1v1c0 .5522847-.4477153 1-1 1z" id="L1_57"/><path d="m19 36c-.5522847 0-1-.4477153-1-1v-1c0-.5522847.4477153-1 1-1s1 .4477153 1 1v1c0 .5522847-.4477153 1-1 1z" id="L1_58"/><path d="m17 33h-1c-.5522847 0-1-.4477153-1-1s.4477153-1 1-1h1c.5522847 0 1 .4477153 1 1s-.4477153 1-1 1z" id="L1_59"/><path d="m39 31c-.5522847 0-1-.4477153-1-1v-1c0-.5522847.4477153-1 1-1s1 .4477153 1 1v1c0 .5522847-.4477153 1-1 1z" id="L1_60"/><path d="m39 36c-.5522847 0-1-.4477153-1-1v-1c0-.5522847.4477153-1 1-1s1 .4477153 1 1v1c0 .5522847-.4477153 1-1 1z" id="L1_61"/><path d="m42 33h-1c-.5522847 0-1-.4477153-1-1s.4477153-1 1-1h1c.5522847 0 1 .4477153 1 1s-.4477153 1-1 1z" id="L1_62"/></g><rect x="25px" y="5px" width="8px" height="6px" id="Rectangle-path" fill="#f3d55b"/><path d="m25 10-8.365 4.712c-1.6.8-3.635-.16-3.635-1.715v-9.997c0-1.555 2.035-2.515 3.635-1.715l8.365 4.715z" id="L1_63" fill="#f0c419"/><path d="m33 10 8.365 4.712c1.6.8 3.635-.16 3.635-1.715v-9.997c0-1.555-2.035-2.515-3.635-1.715l-8.365 4.715z" id="L1_64" fill="#f0c419"/><path d="m31.75 34.9c-1.5401016 1.4664128-3.9598984 1.4664128-5.5 0 .761293-.6523715 1.7503141-.9760512 2.75-.9.9996859-.0760512 1.988707.2476285 2.75.9z" id="L1_68" fill="#ff5364"/><circle cx="23" cy="25" r="1" id="L1_66" fill="#ecf0f1"/><circle cx="33" cy="25" r="1" id="L1_75" fill="#ecf0f1"/></g><g transform="matrix(0.9509367178162826 -0.17068094187283073 0.17068094187283073 0.9509367178162826 149.47308667692283 300.372581305547)" id="L1_94" fill="none"><path d="m15.17 14.94c-3.4024631-.4079189-6.00844198-3.2206889-6.15586146-6.64434496-.14741948-3.42365603 2.20713156-6.4500219 5.56193686-7.14890259 3.3548054-.69888069 6.7219636 1.13552568 7.9539246 4.33324755z" id="L1_69" fill="#a56a43"/><path d="m18.99 7.91c-.049395-1.64552976-1.415636-2.94384267-3.0615451-2.90932814-1.6459092.03451452-2.9565222 1.38896074-2.9368909 3.03511464.0196312 1.64615391 1.3621719 2.9689599 3.008436 2.9642135.2048232.0003458.4091695-.0197538.61-.06z" id="L1_70" fill="#fb7b76"/><path d="m42.83 14.94c3.4024631-.4079189 6.008442-3.2206889 6.1558615-6.64434496.1474194-3.42365603-2.2071316-6.4500219-5.5619369-7.14890259-3.3548054-.69888069-6.7219636 1.13552568-7.9539246 4.33324755z" id="L1_71" fill="#a56a43"/><path d="m41.39 10.94c.2008305.0402462.4051768.0603458.61.06 1.6462641.0047464 2.9888048-1.31805959 3.008436-2.9642135.0196313-1.6461539-1.2909817-3.00060012-2.9368909-3.03511464-1.6459091-.03451453-3.0121501 1.26379838-3.0615451 2.90932814z" id="L1_72" fill="#fb7b76"/><path d="m43 17c.0018839.5050483-.0315308 1.0096108-.1 1.51-.8581291 5.7377036-5.3394328 10.2554406-11.07 11.16h-5.66c-5.7305672-.9045594-10.2118709-5.4222964-11.07-11.16-.0684692-.5003892-.1018839-1.0049517-.1-1.51 0-7.18 6.27-13 14-13s14 5.82 14 13z" id="L1_73" fill="#a56a43"/><path d="m43 17c.0018839.5050483-.0315308 1.0096108-.1 1.51-2.22 4.39-7.61 7.49-13.9 7.49s-11.68-3.1-13.9-7.49c-.0684692-.5003892-.1018839-1.0049517-.1-1.51 0-7.18 6.27-13 14-13s14 5.82 14 13z" id="L1_74" fill="#cb8252"/><path d="m53.836 47.866c-2.075-12.955-9.321-17.084-12.856-18.336h-23.96c-3.5 1.241-10.655 5.309-12.8 18z" id="L1_79" fill="#805333"/><circle cx="22" cy="13" r="3" id="L1_76" fill="#35495e"/><circle cx="22" cy="12" r="2" id="L1_77" fill="#3f5c6c"/><circle cx="36" cy="13" r="3" id="L1_78" fill="#35495e"/><circle cx="36" cy="12" r="2" id="L1_83" fill="#3f5c6c"/><path d="m20.37 53.76c-3.15 3.49-8.7 5.24-13.37 5.24-5 0-7-4-7-8 0-.75 0-1.6.03-2.49v-.01c.15-3.88.91-8.5 4.97-8.5 5 0 6 6 6 6l4.14-1.65 4.02 7.24z" id="L1_80" fill="#805333"/><path d="m58 51c0 4-2 8-7 8-4.67 0-10.22-1.75-13.37-5.24l1.21-2.17 4.02-7.24 4.14 1.65s1-6 6-6c4.06 0 4.82 4.62 4.97 8.5v.01c.03.89.03 1.74.03 2.49z" id="L1_81" fill="#805333"/><path d="m19.16 51.59c-3.485414 2.6770786-7.765257 4.1130786-12.16 4.08-4.65 0-6.7-3.46-6.97-7.16v-.01c.15-3.88.91-8.5 4.97-8.5 5 0 6 6 6 6l4.14-1.65z" id="L1_82" fill="#a56a43"/><path d="m57.97 48.5v.01c-.27 3.7-2.32 7.16-6.97 7.16-4.394743.0330786-8.674586-1.4029214-12.16-4.08l4.02-7.24 4.14 1.65s1-6 6-6c4.06 0 4.82 4.62 4.97 8.5z" id="L1_84" fill="#a56a43"/><ellipse cx="29px" cy="20px" rx="5px" ry="4px" id="L1_90" fill="#cf976a"/><path d="m7 49.02v9.98c-5 0-7-4-7-8 0-2.31 0-5.62.96-8 1.91.01 6.04.66 6.04 6.02z" id="L1_85" fill="#fb7b76"/><path d="m58 51c0 4-2 8-7 8v-9.98c0-5.36 4.13-6.01 6.04-6.02.96 2.38.96 5.69.96 8z" id="L1_86" fill="#fb7b76"/><path d="m43 41.91c0 11.27-7.47 14.09-14 14.09s-14-2.82-14-14.09c0-.48.01-.95.04-1.41.1586832-3.0236104.9202757-5.9849812 2.24-8.71h23.44c1.3197243 2.7250188 2.0813168 5.6863896 2.24 8.71.03.46.04.93.04 1.41z" id="L1_87" fill="#a56a43"/><path d="m42.96 40.5c-.59 10.12-7.7 12.71-13.96 12.71s-13.37-2.59-13.96-12.71c.1586832-3.0236104.9202757-5.9849812 2.24-8.71h23.44c1.3197243 2.7250188 2.0813168 5.6863896 2.24 8.71z" id="L1_88" fill="#cb8252"/><path d="m26.45 31.81c-.83.89-2.84 2.19-7.45 2.19-.8246862-.5011096-1.436731-1.287516-1.72-2.21-.1922397-.5769408-.2868722-1.1819132-.28-1.79 0-.16.01-.32.02-.47.028044-1.4107381.7453205-2.7182733 1.92-3.5l.06-.03c5.74 0 7.45 2.02 7.87 2.74z" id="L1_89" fill="#f0c419"/><path d="m31.13 28.74c.42-.72 2.13-2.74 7.87-2.74l.06.03c1.1746795.7817267 1.891956 2.0892619 1.92 3.5.01.15.02.31.02.47.0068722.6080868-.0877603 1.2130592-.28 1.79-.283269.922484-.8953138 1.7088904-1.72 2.21-4.61 0-6.62-1.3-7.45-2.19z" id="L1_95" fill="#f0c419"/><ellipse cx="29px" cy="30px" rx="3px" ry="2px" id="L1_91" fill="#f3d55b"/><circle cx="29" cy="18" r="2" id="L1_92" fill="#3f5c6c"/><g fill="#ecf0f1"><circle cx="21" cy="12" r="1" id="L1_93"/><circle cx="35" cy="12" r="1" id="L1_105"/></g></g><g transform="matrix(0.8156506696336857 -0.08156506820092643 0.08156506820092643 0.8156506696336857 237.6434391940989 61.28735016646037)" id="L1_117" fill="none"><path d="m9.93 50.52c-3.61 1.23-7.11.57-8.25-1.74-1.32-2.64.96-6.45 5.09-8.51 1.42191024-.7245773 2.97725366-1.1499995 4.57-1.25z" id="L1_96" fill="#3f5c6c"/><path d="m36.66 39.03h.01c1.5889556.1036255 3.1403117.5288876 4.56 1.25 4.13 2.06 6.41 5.87 5.09 8.51-1.15 2.31-4.65 2.97-8.26 1.74z" id="L1_97" fill="#3f5c6c"/><path d="m39 46c-.0289099 3.059741-1.2317019 5.9915465-3.36 8.19l-7.65 4.34c-2.6230898.626677-5.3569102.626677-7.98 0l-7.65-4.34c-2.1282981-2.1984535-3.33109011-5.130259-3.36-8.19.01340202-2.543543.85209675-5.0140078 2.39-7.04.3323469-.4460921.6930943-.8703044 1.08-1.27h23.06c.3869057.3996956.7476531.8239079 1.08 1.27 1.5379032 2.0259922 2.376598 4.496457 2.39 7.04z" id="L1_98" fill="#ecf0f1"/><path d="m18.308 59h-2.616c-1.6047223.0375979-2.9727301-1.1559921-3.153-2.751l-.528-6c-.0508807-.8596451.2617484-1.7011174.8615726-2.3190085.5998241-.6178912 1.4316512-.9553466 2.2924274-.9299915h3.67c.8607762-.0253551 1.6926033.3121003 2.2924274.9299915.5998242.6178911.9124533 1.4593634.8615726 2.3190085l-.528 6c-.1802699 1.5950079-1.5482777 2.7885979-3.153 2.751z" id="L1_99" fill="#547580"/><path d="m32.308 59h-2.616c-1.6047223.0375979-2.9727301-1.1559921-3.153-2.751l-.528-6c-.0508807-.8596451.2617484-1.7011174.8615726-2.3190085.5998241-.6178912 1.4316512-.9553466 2.2924274-.9299915h3.67c.8607762-.0253551 1.6926033.3121003 2.2924274.9299915.5998242.6178911.9124533 1.4593634.8615726 2.3190085l-.528 6c-.1802699 1.5950079-1.5482777 2.7885979-3.153 2.751z" id="L1_100" fill="#547580"/><path d="m18 56h-2c-.5522847 0-1-.4477153-1-1s.4477153-1 1-1h2c.5522847 0 1 .4477153 1 1s-.4477153 1-1 1z" id="L1_101" fill="#3f5c6c"/><path d="m32 56h-2c-.5522847 0-1-.4477153-1-1s.4477153-1 1-1h2c.5522847 0 1 .4477153 1 1s-.4477153 1-1 1z" id="L1_102" fill="#3f5c6c"/><path d="m36.61 38.96c-7.5438026 5.3865798-17.6761974 5.3865798-25.22 0 .3323469-.4460921.6930943-.8703044 1.08-1.27h23.06c.3869057.3996956.7476531.8239079 1.08 1.27z" id="L1_103" fill="#d1d4d1"/><path d="m4.97 17.46c-3.11813786-2.0947043-4.607347-5.9057155-3.73553645-9.55955137.87181054-3.65383584 3.92125669-6.38191728 7.64923943-6.84312728 3.72798272-.46121 7.35032632 1.44146629 9.08629702 4.77267865z" id="L1_104" fill="#3f5c6c"/><path d="m43.03 17.46c3.1181379-2.0947043 4.607347-5.9057155 3.7355365-9.55955137-.8718106-3.65383584-3.9212567-6.38191728-7.6492395-6.84312728-3.7279827-.46121-7.3503263 1.44146629-9.086297 4.77267865z" id="L1_112" fill="#3f5c6c"/><ellipse cx="24px" cy="23px" rx="20px" ry="18px" id="L1_106" fill="#ecf0f1"/><ellipse cx="14px" cy="21px" rx="7px" ry="6px" transform="matrix(0.176 -0.984 0.984 0.176 -8.344 32.029)" id="L1_107" fill="#3f5c6c"/><circle cx="15" cy="20" r="3" id="L1_108" fill="#2c3e50"/><circle cx="15" cy="19" r="2" id="L1_109" fill="#35495e"/><ellipse cx="33px" cy="21px" rx="6px" ry="7px" transform="matrix(0.984 -0.176 0.176 0.984 -3.185 6.152)" id="L1_110" fill="#3f5c6c"/><circle cx="33" cy="20" r="3" id="L1_111" fill="#2c3e50"/><circle cx="33" cy="19" r="2" id="L1_114" fill="#35495e"/><path d="m25 27h-2c-.5522847 0-1-.4477153-1-1s.4477153-1 1-1h2c.5522847 0 1 .4477153 1 1s-.4477153 1-1 1z" id="L1_113" fill="#fb7b76"/><path d="m28 32c-.0024922.994347-.3729607 1.9525782-1.04 2.69-.7580979.834057-1.832896 1.3095725-2.96 1.3095725s-2.2019021-.4755155-2.96-1.3095725c-.6670393-.7374218-1.0375078-1.695653-1.04-2.69z" id="L1_116" fill="#802d40"/><circle cx="14" cy="19" r="1" id="L1_115" fill="#ecf0f1"/><circle cx="32" cy="19" r="1" id="L1_128" fill="#ecf0f1"/><path d="m26.96 34.69c-.7580979.834057-1.832896 1.3095725-2.96 1.3095725s-2.2019021-.4755155-2.96-1.3095725c.22-.96 1.46-1.69 2.96-1.69s2.74.73 2.96 1.69z" id="L1_118" fill="#fb7b76"/></g><g transform="matrix(0.4771535000720187 -0.17893256549680708 0.17893256549680708 0.4771535000720187 86.02624744655719 28.32731791752323)" id="L1_136" fill="none"><path d="m41.32 45.22c-.7783016.3900021-1.686282.4283523-2.4946979.1053682s-1.4400035-.9764337-1.7353021-1.7953682c-.6683152-2.1028215-2.0108628-3.9268587-3.82-5.19-.01 0-.01-.01-.02-.01 1.357 6.311.99 11.729-2.35 18.89-.6211639 1.3073511-2.0643483 2.0108508-3.4768444 1.6948347s-2.4183105-1.5674274-2.4231556-3.0148347v-1.9c-.0032948-1.1032019-.8967981-1.9967052-2-2h-2c-1.1032019.0032948-1.9967052.8967981-2 2v1.9c-.0048451 1.4474073-1.0106595 2.6988186-2.4231556 3.0148347s-2.8556805-.3874836-3.4768444-1.6948347c-1.864412-3.8161772-2.9198284-7.9765605-3.1-12.22.04428-2.2335073.2852111-4.4587734.72-6.65-1.80275835 1.2630835-3.14123056 3.0828436-3.81 5.18-.3822481 1.0451918-1.30376161 1.7989671-2.40399072 1.966405-1.10022912.167438-2.20425677-.2780811-2.88012298-1.1622443-.67586621-.8841631-.81612015-2.0664038-.3658863-3.0841607 2.3670967-5.1352892 5.99669091-9.5871328 10.55-12.94h20.38c4.5534301 3.3527401 8.1830522 7.8046179 10.55 12.94.6577039 1.4903895.0337447 3.2348389-1.42 3.97z" id="L1_119" fill="#a56a43"/><path d="m39.68 35.93c-1.0045943 1.8290978-2.5194372 3.3265687-4.36 4.31-.589315-.7378006-1.2872746-1.3818117-2.07-1.91.4827767 2.1909527.734155 4.4265438.75 6.67 0 .34-.01.67-.03 1.01-.29.13-2.67.99-11.97.99s-11.68-.86-11.97-.99c-.02-.34-.03-.67-.03-1.01.015845-2.2434562.2672233-4.4790473.75-6.67-.78272536.5281883-1.48068501 1.1721994-2.07 1.91-1.84056275-.9834313-3.3554057-2.4809022-4.36-4.31 2.09910881-2.9023374 4.6242092-5.4712647 7.49-7.62 3.0941541 1.7938168 6.6136212 2.7229008 10.19 2.69 3.5763788.0329008 7.0958459-.8961832 10.19-2.69 2.8657908 2.1487353 5.3908912 4.7176626 7.49 7.62z" id="L1_120" fill="#f29c1f"/><path d="m34 45c0 .34-.01.67-.03 1.01-.29.13-2.67.99-11.97.99s-11.68-.86-11.97-.99c-.02-.34-.03-.67-.03-1.01 0-1.01.06-2 .15-2.94.61.22 3.33.94 11.85.94s11.24-.72 11.85-.94c.09.94.15 1.93.15 2.94z" id="L1_121" fill="#f0c419"/><path d="m33.85 42.06c-.61.22-3.33.94-11.85.94s-11.24-.72-11.85-.94c.1305631-1.2535127.3308736-2.4987763.6-3.73.0114447-.0321971.0181808-.0658778.02-.1 1.25.3 4.35.77 11.23.77s9.98-.47 11.23-.77c.0018192.0341222.0085553.0678029.02.1.2691264 1.2312237.4694369 2.4764873.6 3.73z" id="L1_122" fill="#f29c1f"/><path d="m33.23 38.23c-1.25.3-4.35.77-11.23.77s-9.98-.47-11.23-.77c.2815082-1.2866364.6387976-2.5555144 1.07-3.8 3.3666767.4540688 6.7636611.6446476 10.16.57 3.3963389.0746476 6.7933233-.1159312 10.16-.57.4312024 1.2444856.7884918 2.5133636 1.07 3.8z" id="L1_123" fill="#f0c419"/><path d="m33.24 29.13c-3.3150107 2.2439602-7.2372309 3.4199284-11.24 3.37-4.0027691.0499284-7.9249893-1.1260398-11.24-3.37.43-.36.8-.63 1.05-.82h20.38c.25.19.62.46 1.05.82z" id="L1_124" fill="#e57e25"/><path d="m7.36 9.85c-2.08173842-.54638052-3.48515519-2.49033185-3.34853076-4.63823787.13662444-2.14790603 1.77503646-3.8983721 3.90922579-4.17658503 2.13418937-.27821294 4.16660187.99372442 4.84930497 3.0348229z" id="L1_125" fill="#a56a43"/><path d="m36.64 9.85c2.0817384-.54638052 3.4851552-2.49033185 3.3485308-4.63823787-.1366245-2.14790603-1.7750365-3.8983721-3.9092258-4.17658503-2.1341894-.27821294-4.1666019.99372442-4.849305 3.0348229z" id="L1_126" fill="#a56a43"/><path d="m39 17.5c0 7.456-7.611 13.5-17 13.5s-17-6.044-17-13.5 7.611-16.5 17-16.5 17 9.044 17 16.5z" id="L1_127" fill="#cb8252"/><path d="m24.81 15.69c2.4351241 1.2907559 3.6777371 4.0744663 3.0127084 6.749091-.6650286 2.6746247-3.0666459 4.5522202-5.8227084 4.5522202s-5.1576798-1.8775955-5.8227084-4.5522202c-.6650287-2.6746247.5775843-5.4583351 3.0127084-6.749091z" id="L1_129" fill="#cf976a"/><ellipse cx="22px" cy="15px" rx="3px" ry="2px" id="L1_130" fill="#35495e"/><path d="m23 23h-2c-.5522847 0-1-.4477153-1-1s.4477153-1 1-1h2c.5522847 0 1 .4477153 1 1s-.4477153 1-1 1z" id="Shape" fill="#805333"/><circle cx="14" cy="12" r="3" id="L1_131" fill="#2c3e50"/><circle cx="14" cy="11" r="2" id="L1_132" fill="#35495e"/><circle cx="30" cy="12" r="3" id="L1_133" fill="#2c3e50"/><circle cx="30" cy="11" r="2" id="L1_134" fill="#35495e"/><g fill="#ecf0f1"><circle cx="13" cy="11" r="1" id="L1_135"/><circle cx="29" cy="11" r="1" id="Oval"/></g></g></defs><g fi:class="KUsePattern"><pattern id="pattern_L1_16" width="350" height="350" patternUnits="userSpaceOnUse"><use xlink:href="#L1_16" x="-350" y="-350"/><use xlink:href="#L1_16" x="0" y="-350"/><use xlink:href="#L1_16" x="350" y="-350"/><use xlink:href="#L1_16" x="-350" y="0"/><use xlink:href="#L1_16" x="0" y="0"/><use xlink:href="#L1_16" x="350" y="0"/><use xlink:href="#L1_16" x="-350" y="350"/><use xlink:href="#L1_16" x="0" y="350"/><use xlink:href="#L1_16" x="350" y="350"/></pattern><rect x="0" y="0" width="100%" height="100%" fill="url(#pattern_L1_16)"/></g><g fi:class="KUsePattern"><pattern id="pattern_L1_38" width="350" height="350" patternUnits="userSpaceOnUse"><use xlink:href="#L1_38" x="-350" y="-350"/><use xlink:href="#L1_38" x="0" y="-350"/><use xlink:href="#L1_38" x="350" y="-350"/><use xlink:href="#L1_38" x="-350" y="0"/><use xlink:href="#L1_38" x="0" y="0"/><use xlink:href="#L1_38" x="350" y="0"/><use xlink:href="#L1_38" x="-350" y="350"/><use xlink:href="#L1_38" x="0" y="350"/><use xlink:href="#L1_38" x="350" y="350"/></pattern><rect x="0" y="0" width="100%" height="100%" fill="url(#pattern_L1_38)"/></g><g fi:class="KUsePattern"><pattern id="pattern_L1_67" width="350" height="350" patternUnits="userSpaceOnUse"><use xlink:href="#L1_67" x="-350" y="-350"/><use xlink:href="#L1_67" x="0" y="-350"/><use xlink:href="#L1_67" x="350" y="-350"/><use xlink:href="#L1_67" x="-350" y="0"/><use xlink:href="#L1_67" x="0" y="0"/><use xlink:href="#L1_67" x="350" y="0"/><use xlink:href="#L1_67" x="-350" y="350"/><use xlink:href="#L1_67" x="0" y="350"/><use xlink:href="#L1_67" x="350" y="350"/></pattern><rect x="0" y="0" width="100%" height="100%" fill="url(#pattern_L1_67)"/></g><g fi:class="KUsePattern"><pattern id="pattern_L1_94" width="350" height="350" patternUnits="userSpaceOnUse"><use xlink:href="#L1_94" x="-350" y="-350"/><use xlink:href="#L1_94" x="0" y="-350"/><use xlink:href="#L1_94" x="350" y="-350"/><use xlink:href="#L1_94" x="-350" y="0"/><use xlink:href="#L1_94" x="0" y="0"/><use xlink:href="#L1_94" x="350" y="0"/><use xlink:href="#L1_94" x="-350" y="350"/><use xlink:href="#L1_94" x="0" y="350"/><use xlink:href="#L1_94" x="350" y="350"/></pattern><rect x="0" y="0" width="100%" height="100%" fill="url(#pattern_L1_94)"/></g><g fi:class="KUsePattern"><pattern id="pattern_L1_117" width="350" height="350" patternUnits="userSpaceOnUse"><use xlink:href="#L1_117" x="-350" y="-350"/><use xlink:href="#L1_117" x="0" y="-350"/><use xlink:href="#L1_117" x="350" y="-350"/><use xlink:href="#L1_117" x="-350" y="0"/><use xlink:href="#L1_117" x="0" y="0"/><use xlink:href="#L1_117" x="350" y="0"/><use xlink:href="#L1_117" x="-350" y="350"/><use xlink:href="#L1_117" x="0" y="350"/><use xlink:href="#L1_117" x="350" y="350"/></pattern><rect x="0" y="0" width="100%" height="100%" fill="url(#pattern_L1_117)"/></g><g fi:class="KUsePattern"><pattern id="pattern_L1_136" width="350" height="350" patternUnits="userSpaceOnUse"><use xlink:href="#L1_136" x="-350" y="-350"/><use xlink:href="#L1_136" x="0" y="-350"/><use xlink:href="#L1_136" x="350" y="-350"/><use xlink:href="#L1_136" x="-350" y="0"/><use xlink:href="#L1_136" x="0" y="0"/><use xlink:href="#L1_136" x="350" y="0"/><use xlink:href="#L1_136" x="-350" y="350"/><use xlink:href="#L1_136" x="0" y="350"/><use xlink:href="#L1_136" x="350" y="350"/></pattern><rect x="0" y="0" width="100%" height="100%" fill="url(#pattern_L1_136)"/></g></svg>